{
  "accessors": [
    {
      "bufferView": 2,
      "componentType": 5126,
      "count": 2968,
      "max": [
        3.298673152923584,
        6.199071884155273,
        2.2068233489990234
      ],
      "min": [
        -4.386390209197998,
        -0.008451402187347412,
        -40.0927848815918
      ],
      "type": "VEC3"
    },
    {
      "bufferView": 2,
      "byteOffset": 35616,
      "componentType": 5126,
      "count": 2968,
      "max": [
        1.0,
        1.0,
        1.0
      ],
      "min": [
        -1.0,
        -1.0,
        -1.0
      ],
      "type": "VEC3"
    },
    {
      "bufferView": 1,
      "componentType": 5126,
      "count": 2968,
      "max": [
        0.65625,
        1.0
      ],
      "min": [
        0.34375,
        0.0
      ],
      "type": "VEC2"
    },
    {
      "bufferView": 0,
      "componentType": 5125,
      "count": 8640,
      "type": "SCALAR"
    },
    {
      "bufferView": 2,
      "byteOffset": 71232,
      "componentType": 5126,
      "count": 11091,
      "max": [
        6.691102981567383,
        5.968307018280029,
        4.224725723266602
      ],
      "min": [
        -5.19096040725708,
        -0.10894753038883209,
        -42.110687255859375
      ],
      "type": "VEC3"
    },
    {
      "bufferView": 2,
      "byteOffset": 204324,
      "componentType": 5126,
      "count": 11091,
      "max": [
        1.0,
        1.0,
        1.0
      ],
      "min": [
        -1.0,
        -1.0,
        -1.0
      ],
      "type": "VEC3"
    },
    {
      "bufferView": 1,
      "byteOffset": 23744,
      "componentType": 5126,
      "count": 11091,
      "max": [
        0.875,
        1.0
      ],
      "min": [
        0.125,
        0.0
      ],
      "type": "VEC2"
    },
    {
      "bufferView": 0,
      "byteOffset": 34560,
      "componentType": 5125,
      "count": 22548,
      "type": "SCALAR"
    },
    {
      "bufferView": 2,
      "byteOffset": 337416,
      "componentType": 5126,
      "count": 4613,
      "max": [
        2.921751022338867,
        6.98956823348999,
        2.1377110481262207
      ],
      "min": [
        -4.758263111114502,
        2.108208417892456,
        -40.02367401123047
      ],
      "type": "VEC3"
    },
    {
      "bufferView": 2,
      "byteOffset": 392772,
      "componentType": 5126,
      "count": 4613,
      "max": [
        0.999958872795105,
        0.9998760223388672,
        1.0
      ],
      "min": [
        -0.9995801448822021,
        -1.0,
        -1.0
      ],
      "type": "VEC3"
    },
    {
      "bufferView": 1,
      "byteOffset": 112472,
      "componentType": 5126,
      "count": 4613,
      "max": [
        0.875,
        1.0
      ],
      "min": [
        0.125,
        0.0
      ],
      "type": "VEC2"
    },
    {
      "bufferView": 0,
      "byteOffset": 124752,
      "componentType": 5125,
      "count": 13272,
      "type": "SCALAR"
    },
    {
      "bufferView": 2,
      "byteOffset": 448128,
      "componentType": 5126,
      "count": 1100,
      "max": [
        2.873382329940796,
        6.941647052764893,
        -0.44897860288619995
      ],
      "min": [
        0.20267851650714874,
        4.6108245849609375,
        -39.75946044921875
      ],
      "type": "VEC3"
    },
    {
      "bufferView": 2,
      "byteOffset": 461328,
      "componentType": 5126,
      "count": 1100,
      "max": [
        0.7376750707626343,
        0.6736803650856018,
        0.9999828338623047
      ],
      "min": [
        -0.9931488633155823,
        -0.9826129674911499,
        -0.9999828338623047
      ],
      "type": "VEC3"
    },
    {
      "bufferView": 1,
      "byteOffset": 149376,
      "componentType": 5126,
      "count": 1100,
      "max": [
        0.875,
        0.9871047735214233
      ],
      "min": [
        0.125,
        0.0
      ],
      "type": "VEC2"
    },
    {
      "bufferView": 0,
      "byteOffset": 177840,
      "componentType": 5125,
      "count": 3870,
      "type": "SCALAR"
    },
    {
      "bufferView": 2,
      "byteOffset": 474528,
      "componentType": 5126,
      "count": 2038,
      "max": [
        3.281932830810547,
        5.751331806182861,
        1.6863396167755127
      ],
      "min": [
        -5.1793694496154785,
        -0.1037461906671524,
        -39.572235107421875
      ],
      "type": "VEC3"
    },
    {
      "bufferView": 2,
      "byteOffset": 498984,
      "componentType": 5126,
      "count": 2038,
      "max": [
        1.0,
        1.0,
        1.0
      ],
      "min": [
        -1.0,
        -1.0,
        -1.0
      ],
      "type": "VEC3"
    },
    {
      "bufferView": 1,
      "byteOffset": 158176,
      "componentType": 5126,
      "count": 2038,
      "max": [
        0.875,
        1.0
      ],
      "min": [
        0.125,
        0.0
      ],
      "type": "VEC2"
    },
    {
      "bufferView": 0,
      "byteOffset": 193320,
      "componentType": 5125,
      "count": 6312,
      "type": "SCALAR"
    },
    {
      "bufferView": 2,
      "byteOffset": 523440,
      "componentType": 5126,
      "count": 927,
      "max": [
        1.0894159078598022,
        4.448459148406982,
        1.856253743171692
      ],
      "min": [
        -5.196328163146973,
        -0.10152138769626617,
        -39.74221420288086
      ],
      "type": "VEC3"
    },
    {
      "bufferView": 2,
      "byteOffset": 534564,
      "componentType": 5126,
      "count": 927,
      "max": [
        1.0,
        1.0,
        1.0
      ],
      "min": [
        -1.0,
        -1.0,
        -1.0
      ],
      "type": "VEC3"
    },
    {
      "bufferView": 1,
      "byteOffset": 174480,
      "componentType": 5126,
      "count": 927,
      "max": [
        0.65625,
        1.0
      ],
      "min": [
        0.34375,
        0.0
      ],
      "type": "VEC2"
    },
    {
      "bufferView": 0,
      "byteOffset": 218568,
      "componentType": 5125,
      "count": 2616,
      "type": "SCALAR"
    },
    {
      "bufferView": 2,
      "byteOffset": 545688,
      "componentType": 5126,
      "count": 1904,
      "max": [
        3.378789186477661,
        3.4935712814331055,
        2.2141690254211426
      ],
      "min": [
        -4.689699172973633,
        -0.03234148025512695,
        -40.0814208984375
      ],
      "type": "VEC3"
    },
    {
      "bufferView": 2,
      "byteOffset": 568536,
      "componentType": 5126,
      "count": 1904,
      "max": [
        1.0,
        1.0,
        1.0
      ],
      "min": [
        -1.0,
        -1.0,
        -1.0
      ],
      "type": "VEC3"
    },
    {
      "bufferView": 1,
      "byteOffset": 181896,
      "componentType": 5126,
      "count": 1904,
      "max": [
        0.65625,
        1.0
      ],
      "min": [
        0.34375,
        0.0
      ],
      "type": "VEC2"
    },
    {
      "bufferView": 0,
      "byteOffset": 229032,
      "componentType": 5125,
      "count": 5616,
      "type": "SCALAR"
    },
    {
      "bufferView": 2,
      "byteOffset": 591384,
      "componentType": 5126,
      "count": 6597,
      "max": [
        6.067354202270508,
        6.073847770690918,
        4.143585681915283
      ],
      "min": [
        -5.120151042938232,
        -0.044527843594551086,
        -42.02954864501953
      ],
      "type": "VEC3"
    },
    {
      "bufferView": 2,
      "byteOffset": 670548,
      "componentType": 5126,
      "count": 6597,
      "max": [
        1.0,
        1.0,
        1.0
      ],
      "min": [
        -1.0,
        -1.0,
        -1.0
      ],
      "type": "VEC3"
    },
    {
      "bufferView": 1,
      "byteOffset": 197128,
      "componentType": 5126,
      "count": 6597,
      "max": [
        0.875,
        1.0
      ],
      "min": [
        0.125,
        0.0
      ],
      "type": "VEC2"
    },
    {
      "bufferView": 0,
      "byteOffset": 251496,
      "componentType": 5125,
      "count": 18528,
      "type": "SCALAR"
    },
    {
      "bufferView": 2,
      "byteOffset": 749712,
      "componentType": 5126,
      "count": 312,
      "max": [
        -4.123402118682861,
        2.7430686950683594,
        2.162450075149536
      ],
      "min": [
        -4.401889324188232,
        2.464583158493042,
        -39.42633819580078
      ],
      "type": "VEC3"
    },
    {
      "bufferView": 2,
      "byteOffset": 753456,
      "componentType": 5126,
      "count": 312,
      "max": [
        1.0,
        0.9985332489013672,
        1.0
      ],
      "min": [
        -0.9985330104827881,
        -0.9993907809257507,
        -1.0
      ],
      "type": "VEC3"
    },
    {
      "bufferView": 1,
      "byteOffset": 249904,
      "componentType": 5126,
      "count": 312,
      "max": [
        0.65625,
        1.0
      ],
      "min": [
        0.34375,
        0.0
      ],
      "type": "VEC2"
    },
    {
      "bufferView": 0,
      "byteOffset": 325608,
      "componentType": 5125,
      "count": 846,
      "type": "SCALAR"
    },
    {
      "bufferView": 2,
      "byteOffset": 757200,
      "componentType": 5126,
      "count": 2942,
      "max": [
        4.557267189025879,
        5.832740306854248,
        2.110309600830078
      ],
      "min": [
        2.8373947143554688,
        5.337705135345459,
        -39.997169494628906
      ],
      "type": "VEC3"
    },
    {
      "bufferView": 2,
      "byteOffset": 792504,
      "componentType": 5126,
      "count": 2942,
      "max": [
        0.9991256594657898,
        0.996035099029541,
        0.999481201171875
      ],
      "min": [
        -0.9991585612297058,
        -0.9960352778434753,
        -0.9991680383682251
      ],
      "type": "VEC3"
    },
    {
      "bufferView": 1,
      "byteOffset": 252400,
      "componentType": 5126,
      "count": 2942,
      "max": [
        0.65625,
        1.0
      ],
      "min": [
        0.34375,
        0.0
      ],
      "type": "VEC2"
    },
    {
      "bufferView": 0,
      "byteOffset": 328992,
      "componentType": 5125,
      "count": 8340,
      "type": "SCALAR"
    },
    {
      "bufferView": 2,
      "byteOffset": 827808,
      "componentType": 5126,
      "count": 564,
      "max": [
        0.6380137205123901,
        3.1497931480407715,
        -0.12169350683689117
      ],
      "min": [
        0.31787705421447754,
        2.84238338470459,
        -37.76426696777344
      ],
      "type": "VEC3"
    },
    {
      "bufferView": 2,
      "byteOffset": 834576,
      "componentType": 5126,
      "count": 564,
      "max": [
        0.9805556535720825,
        0.7401698231697083,
        1.0
      ],
      "min": [
        -0.7401530146598816,
        -0.9634585976600647,
        -1.0
      ],
      "type": "VEC3"
    },
    {
      "bufferView": 1,
      "byteOffset": 275936,
      "componentType": 5126,
      "count": 564,
      "max": [
        0.65625,
        1.0
      ],
      "min": [
        0.34375,
        0.0
      ],
      "type": "VEC2"
    },
    {
      "bufferView": 0,
      "byteOffset": 362352,
      "componentType": 5125,
      "count": 1944,
      "type": "SCALAR"
    },
    {
      "bufferView": 2,
      "byteOffset": 841344,
      "componentType": 5126,
      "count": 981,
      "max": [
        2.8704214096069336,
        6.949503421783447,
        -0.5425939559936523
      ],
      "min": [
        -4.741698741912842,
        2.124772548675537,
        -20.761333465576172
      ],
      "type": "VEC3"
    },
    {
      "bufferView": 2,
      "byteOffset": 853116,
      "componentType": 5126,
      "count": 981,
      "max": [
        0.999958872795105,
        0.9993722438812256,
        1.0
      ],
      "min": [
        -0.9995801448822021,
        -0.9994217157363892,
        -1.0
      ],
      "type": "VEC3"
    },
    {
      "bufferView": 1,
      "byteOffset": 280448,
      "componentType": 5126,
      "count": 981,
      "max": [
        0.875,
        1.0
      ],
      "min": [
        0.125,
        0.0
      ],
      "type": "VEC2"
    },
    {
      "bufferView": 0,
      "byteOffset": 370128,
      "componentType": 5125,
      "count": 3417,
      "type": "SCALAR"
    }
  ],
  "asset": {
    "extras": {
      "author": "KoteTheCat (https://sketchfab.com/KoteTheCat)",
      "license": "CC-BY-4.0 (http://creativecommons.org/licenses/by/4.0/)",
      "source": "https://sketchfab.com/3d-models/week-8-hyperextension-a724761a43f34813b92d17ca6678000b",
      "title": "Week 8 - Hyperextension"
    },
    "generator": "Sketchfab-12.68.0",
    "version": "2.0"
  },
  "bufferViews": [
    {
      "buffer": 0,
      "byteLength": 383796,
      "name": "floatBufferViews",
      "target": 34963
    },
    {
      "buffer": 0,
      "byteLength": 288296,
      "byteOffset": 383796,
      "byteStride": 8,
      "name": "floatBufferViews",
      "target": 34962
    },
    {
      "buffer": 0,
      "byteLength": 864888,
      "byteOffset": 672092,
      "byteStride": 12,
      "name": "floatBufferViews",
      "target": 34962
    }
  ],
  "buffers": [
    {
      "byteLength": 1536980,
      "uri": "scene.bin"
    }
  ],
  "materials": [
    {
      "doubleSided": true,
      "name": "metal4",
      "pbrMetallicRoughness": {
        "baseColorFactor": [
          0.4946678048780488,
          0.5521134918064025,
          0.5751951219512196,
          1.0
        ],
        "metallicFactor": 0.5200076219512195,
        "roughnessFactor": 0.9317464603174774
      }
    },
    {
      "doubleSided": true,
      "name": "black_plastic",
      "pbrMetallicRoughness": {
        "baseColorFactor": [
          0.02996208079268293,
          0.027649497332317072,
          0.02498837538109756,
          1.0
        ],
        "metallicFactor": 0.0,
        "roughnessFactor": 0.9454091359800092
      }
    },
    {
      "doubleSided": true,
      "name": "black_leather",
      "pbrMetallicRoughness": {
        "baseColorFactor": [
          0.02354954268292683,
          0.021731910480182925,
          0.019640318597560977,
          1.0
        ],
        "metallicFactor": 0.0,
        "roughnessFactor": 0.8714399927705461
      }
    },
    {
      "doubleSided": true,
      "name": "black_leather2",
      "pbrMetallicRoughness": {
        "baseColorFactor": [
          0.041810071665396346,
          0.03858301000381097,
          0.034869646817835366,
          1.0
        ],
        "metallicFactor": 0.0,
        "roughnessFactor": 0.8714399927705461
      }
    },
    {
      "doubleSided": true,
      "name": "metal1",
      "pbrMetallicRoughness": {
        "baseColorFactor": [
          0.26577281345274395,
          0.287307543445122,
          0.29596059870426833,
          1.0
        ],
        "metallicFactor": 0.5383003048780488,
        "roughnessFactor": 0.8676311285574048
      }
    },
    {
      "doubleSided": true,
      "name": "flufy_shit",
      "pbrMetallicRoughness": {
        "baseColorFactor": [
          0.019371951219512195,
          0.01723352995426829,
          0.016291810975609753,
          1.0
        ],
        "metallicFactor": 0.0,
        "roughnessFactor": 0.9938222949869128
      }
    },
    {
      "doubleSided": true,
      "name": "metal3",
      "pbrMetallicRoughness": {
        "baseColorFactor": [
          0.4357557848704268,
          0.4945260828887195,
          0.5181400533536585,
          1.0
        ],
        "metallicFactor": 0.5139100609756098,
        "roughnessFactor": 0.9047445496447664
      }
    },
    {
      "doubleSided": true,
      "name": "metal2",
      "pbrMetallicRoughness": {
        "baseColorFactor": [
          0.2630444611280488,
          0.28435845045731706,
          0.2929226690167683,
          1.0
        ],
        "metallicFactor": 0.5261051829268293,
        "roughnessFactor": 0.8676311285574048
      }
    },
    {
      "doubleSided": true,
      "name": "lambert1",
      "pbrMetallicRoughness": {
        "baseColorFactor": [
          0.3057355182926829,
          0.3057355182926829,
          0.3057355182926829,
          1.0
        ],
        "metallicFactor": 0.6602515243902439,
        "roughnessFactor": 0.6
      }
    },
    {
      "doubleSided": true,
      "name": "resin",
      "pbrMetallicRoughness": {
        "baseColorFactor": [
          0.05346436737804878,
          0.0496782853277439,
          0.0480110019054878,
          1.0
        ],
        "metallicFactor": 0.0,
        "roughnessFactor": 0.9790387281250291
      }
    },
    {
      "doubleSided": true,
      "name": "red_plastic",
      "pbrMetallicRoughness": {
        "baseColorFactor": [
          0.28938109756097563,
          0.0459047604992378,
          0.02575491768292683,
          1.0
        ],
        "metallicFactor": 0.0,
        "roughnessFactor": 0.9447097106605675
      }
    },
    {
      "doubleSided": true,
      "name": "insides",
      "pbrMetallicRoughness": {
        "baseColorFactor": [
          0.41213147865853655,
          0.31573551562499996,
          0.06017119588414636,
          1.0
        ],
        "metallicFactor": 0.0,
        "roughnessFactor": 0.6
      }
    }
  ],
  "meshes": [
    {
      "name": "curve3_metal4_0",
      "primitives": [
        {
          "attributes": {
            "NORMAL": 1,
            "POSITION": 0,
            "TEXCOORD_0": 2
          },
          "indices": 3,
          "material": 0,
          "mode": 4
        }
      ]
    },
    {
      "name": "curve3_black_plastic_0",
      "primitives": [
        {
          "attributes": {
            "NORMAL": 5,
            "POSITION": 4,
            "TEXCOORD_0": 6
          },
          "indices": 7,
          "material": 1,
          "mode": 4
        }
      ]
    },
    {
      "name": "curve3_black_leather_0",
      "primitives": [
        {
          "attributes": {
            "NORMAL": 9,
            "POSITION": 8,
            "TEXCOORD_0": 10
          },
          "indices": 11,
          "material": 2,
          "mode": 4
        }
      ]
    },
    {
      "name": "curve3_black_leather2_0",
      "primitives": [
        {
          "attributes": {
            "NORMAL": 13,
            "POSITION": 12,
            "TEXCOORD_0": 14
          },
          "indices": 15,
          "material": 3,
          "mode": 4
        }
      ]
    },
    {
      "name": "curve3_metal1_0",
      "primitives": [
        {
          "attributes": {
            "NORMAL": 17,
            "POSITION": 16,
            "TEXCOORD_0": 18
          },
          "indices": 19,
          "material": 4,
          "mode": 4
        }
      ]
    },
    {
      "name": "curve3_flufy_shit_0",
      "primitives": [
        {
          "attributes": {
            "NORMAL": 21,
            "POSITION": 20,
            "TEXCOORD_0": 22
          },
          "indices": 23,
          "material": 5,
          "mode": 4
        }
      ]
    },
    {
      "name": "curve3_metal3_0",
      "primitives": [
        {
          "attributes": {
            "NORMAL": 25,
            "POSITION": 24,
            "TEXCOORD_0": 26
          },
          "indices": 27,
          "material": 6,
          "mode": 4
        }
      ]
    },
    {
      "name": "curve3_metal2_0",
      "primitives": [
        {
          "attributes": {
            "NORMAL": 29,
            "POSITION": 28,
            "TEXCOORD_0": 30
          },
          "indices": 31,
          "material": 7,
          "mode": 4
        }
      ]
    },
    {
      "name": "curve3_lambert1_0",
      "primitives": [
        {
          "attributes": {
            "NORMAL": 33,
            "POSITION": 32,
            "TEXCOORD_0": 34
          },
          "indices": 35,
          "material": 8,
          "mode": 4
        }
      ]
    },
    {
      "name": "curve3_resin_0",
      "primitives": [
        {
          "attributes": {
            "NORMAL": 37,
            "POSITION": 36,
            "TEXCOORD_0": 38
          },
          "indices": 39,
          "material": 9,
          "mode": 4
        }
      ]
    },
    {
      "name": "curve3_red_plastic_0",
      "primitives": [
        {
          "attributes": {
            "NORMAL": 41,
            "POSITION": 40,
            "TEXCOORD_0": 42
          },
          "indices": 43,
          "material": 10,
          "mode": 4
        }
      ]
    },
    {
      "name": "curve3_insides_0",
      "primitives": [
        {
          "attributes": {
            "NORMAL": 45,
            "POSITION": 44,
            "TEXCOORD_0": 46
          },
          "indices": 47,
          "material": 11,
          "mode": 4
        }
      ]
    }
  ],
  "nodes": [
    {
      "children": [
        1
      ],
      "matrix": [
        1.0,
        0.0,
        0.0,
        0.0,
        0.0,
        2.220446049250313e-16,
        -1.0,
        0.0,
        0.0,
        1.0,
        2.220446049250313e-16,
        0.0,
        0.0,
        0.0,
        0.0,
        1.0
      ],
      "name": "Sketchfab_model"
    },
    {
      "children": [
        2
      ],
      "matrix": [
        1.0,
        0.0,
        0.0,
        0.0,
        0.0,
        0.0,
        1.0,
        0.0,
        0.0,
        -1.0,
        0.0,
        0.0,
        0.0,
        0.0,
        0.0,
        1.0
      ],
      "name": "689cf997ad0b43299e7e6e80ccd3e6bb.fbx"
    },
    {
      "children": [
        3
      ],
      "name": "RootNode"
    },
    {
      "children": [
        4,
        5,
        6,
        7,
        8,
        9,
        10,
        11,
        12,
        13,
        14,
        15
      ],
      "matrix": [
        1.0,
        0.0,
        0.0,
        0.0,
        0.0,
        1.0,
        0.0,
        0.0,
        0.0,
        0.0,
        1.0,
        0.0,
        0.0,
        0.0,
        18.942981719970703,
        1.0
      ],
      "name": "curve3"
    },
    {
      "mesh": 0,
      "name": "curve3_metal4_0"
    },
    {
      "mesh": 1,
      "name": "curve3_black_plastic_0"
    },
    {
      "mesh": 2,
      "name": "curve3_black_leather_0"
    },
    {
      "mesh": 3,
      "name": "curve3_black_leather2_0"
    },
    {
      "mesh": 4,
      "name": "curve3_metal1_0"
    },
    {
      "mesh": 5,
      "name": "curve3_flufy_shit_0"
    },
    {
      "mesh": 6,
      "name": "curve3_metal3_0"
    },
    {
      "mesh": 7,
      "name": "curve3_metal2_0"
    },
    {
      "mesh": 8,
      "name": "curve3_lambert1_0"
    },
    {
      "mesh": 9,
      "name": "curve3_resin_0"
    },
    {
      "mesh": 10,
      "name": "curve3_red_plastic_0"
    },
    {
      "mesh": 11,
      "name": "curve3_insides_0"
    }
  ],
  "scene": 0,
  "scenes": [
    {
      "name": "Sketchfab_Scene",
      "nodes": [
        0
      ]
    }
  ]
}
