{
  "accessors": [
    {
      "bufferView": 2,
      "componentType": 5126,
      "count": 102,
      "max": [
        777.55908203125,
        1387.7950439453125,
        2.842170943040401e-14
      ],
      "min": [
        -9.842519760131836,
        -196.85040283203125,
        0.0
      ],
      "type": "VEC3"
    },
    {
      "bufferView": 2,
      "byteOffset": 1224,
      "componentType": 5126,
      "count": 102,
      "max": [
        -3.7349798695170166e-17,
        -1.3847210249290822e-18,
        1.0
      ],
      "min": [
        -3.7349798695170166e-17,
        -1.3847210249290822e-18,
        1.0
      ],
      "type": "VEC3"
    },
    {
      "bufferView": 1,
      "componentType": 5126,
      "count": 102,
      "max": [
        7.4053239822387695,
        13.217100143432617
      ],
      "min": [
        -0.09373828023672104,
        -1.8747659921646118
      ],
      "type": "VEC2"
    },
    {
      "bufferView": 0,
      "componentType": 5125,
      "count": 252,
      "type": "SCALAR"
    },
    {
      "bufferView": 2,
      "byteOffset": 2448,
      "componentType": 5126,
      "count": 2,
      "max": [
        0.0,
        1190.9449462890625,
        236.2205047607422
      ],
      "min": [
        0.0,
        1190.9449462890625,
        0.0
      ],
      "type": "VEC3"
    },
    {
      "bufferView": 0,
      "byteOffset": 1008,
      "componentType": 5125,
      "count": 2,
      "type": "SCALAR"
    },
    {
      "bufferView": 2,
      "byteOffset": 2472,
      "componentType": 5126,
      "count": 5382,
      "max": [
        821.4970703125,
        1427.1650390625,
        497.61920166015625
      ],
      "min": [
        -53.7805290222168,
        -236.2205047607422,
        0.0
      ],
      "type": "VEC3"
    },
    {
      "bufferView": 0,
      "byteOffset": 1016,
      "componentType": 5125,
      "count": 16168,
      "type": "SCALAR"
    },
    {
      "bufferView": 2,
      "byteOffset": 67056,
      "componentType": 5126,
      "count": 2016,
      "max": [
        597.93310546875,
        1205.708984375,
        137.79530334472656
      ],
      "min": [
        169.7834930419922,
        -14.763779640197754,
        127.95279693603516
      ],
      "type": "VEC3"
    },
    {
      "bufferView": 2,
      "byteOffset": 91248,
      "componentType": 5126,
      "count": 2016,
      "max": [
        1.0,
        1.0,
        1.0
      ],
      "min": [
        -1.0,
        -1.0,
        -1.0
      ],
      "type": "VEC3"
    },
    {
      "bufferView": 0,
      "byteOffset": 65688,
      "componentType": 5125,
      "count": 5796,
      "type": "SCALAR"
    },
    {
      "bufferView": 2,
      "byteOffset": 115440,
      "componentType": 5126,
      "count": 467,
      "max": [
        821.4970703125,
        1427.1650390625,
        497.61920166015625
      ],
      "min": [
        -53.7805290222168,
        -236.2205047607422,
        0.0
      ],
      "type": "VEC3"
    },
    {
      "bufferView": 2,
      "byteOffset": 121044,
      "componentType": 5126,
      "count": 467,
      "max": [
        1.0,
        1.0,
        1.0
      ],
      "min": [
        -1.0,
        -1.0,
        -1.0
      ],
      "type": "VEC3"
    },
    {
      "bufferView": 0,
      "byteOffset": 88872,
      "componentType": 5125,
      "count": 1065,
      "type": "SCALAR"
    },
    {
      "bufferView": 2,
      "byteOffset": 126648,
      "componentType": 5126,
      "count": 292,
      "max": [
        767.7164916992188,
        1397.637939453125,
        236.2205047607422
      ],
      "min": [
        0.0,
        -206.69290161132813,
        1.1102230246251565e-14
      ],
      "type": "VEC3"
    },
    {
      "bufferView": 2,
      "byteOffset": 130152,
      "componentType": 5126,
      "count": 292,
      "max": [
        1.0,
        1.0,
        1.0
      ],
      "min": [
        -1.0,
        -1.0,
        -1.0
      ],
      "type": "VEC3"
    },
    {
      "bufferView": 0,
      "byteOffset": 93132,
      "componentType": 5125,
      "count": 744,
      "type": "SCALAR"
    },
    {
      "bufferView": 2,
      "byteOffset": 133656,
      "componentType": 5126,
      "count": 1125,
      "max": [
        787.401611328125,
        1387.7950439453125,
        493.25531005859375
      ],
      "min": [
        -19.685039520263672,
        -196.85040283203125,
        0.0
      ],
      "type": "VEC3"
    },
    {
      "bufferView": 2,
      "byteOffset": 147156,
      "componentType": 5126,
      "count": 1125,
      "max": [
        1.0,
        1.0,
        1.0
      ],
      "min": [
        -1.0,
        -1.0,
        -1.0
      ],
      "type": "VEC3"
    },
    {
      "bufferView": 0,
      "byteOffset": 96108,
      "componentType": 5125,
      "count": 2340,
      "type": "SCALAR"
    },
    {
      "bufferView": 2,
      "byteOffset": 160656,
      "componentType": 5126,
      "count": 61,
      "max": [
        773.9564208984375,
        1387.7950439453125,
        472.047607421875
      ],
      "min": [
        -14.763779640197754,
        -196.85040283203125,
        0.0
      ],
      "type": "VEC3"
    },
    {
      "bufferView": 0,
      "byteOffset": 105468,
      "componentType": 5125,
      "count": 62,
      "type": "SCALAR"
    },
    {
      "bufferView": 2,
      "byteOffset": 161388,
      "componentType": 5126,
      "count": 6103,
      "max": [
        782.4802856445313,
        1387.7950439453125,
        493.25531005859375
      ],
      "min": [
        -19.685039520263672,
        -196.85040283203125,
        0.0
      ],
      "type": "VEC3"
    },
    {
      "bufferView": 2,
      "byteOffset": 234624,
      "componentType": 5126,
      "count": 6103,
      "max": [
        1.0,
        1.0,
        1.0
      ],
      "min": [
        -1.0,
        -1.0,
        -1.0
      ],
      "type": "VEC3"
    },
    {
      "bufferView": 0,
      "byteOffset": 105716,
      "componentType": 5125,
      "count": 14376,
      "type": "SCALAR"
    },
    {
      "bufferView": 2,
      "byteOffset": 307860,
      "componentType": 5126,
      "count": 40,
      "max": [
        787.401611328125,
        1387.7950439453125,
        463.5237121582031
      ],
      "min": [
        -9.842519760131836,
        -196.85040283203125,
        137.79530334472656
      ],
      "type": "VEC3"
    },
    {
      "bufferView": 0,
      "byteOffset": 163220,
      "componentType": 5125,
      "count": 40,
      "type": "SCALAR"
    },
    {
      "bufferView": 2,
      "byteOffset": 308340,
      "componentType": 5126,
      "count": 2,
      "max": [
        302.35321044921875,
        -196.85040283203125,
        372.785400390625
      ],
      "min": [
        298.756103515625,
        -196.85040283203125,
        366.55499267578125
      ],
      "type": "VEC3"
    },
    {
      "bufferView": 0,
      "byteOffset": 163380,
      "componentType": 5125,
      "count": 2,
      "type": "SCALAR"
    },
    {
      "bufferView": 2,
      "byteOffset": 308364,
      "componentType": 5126,
      "count": 573,
      "max": [
        787.401611328125,
        1377.9530029296875,
        342.027587890625
      ],
      "min": [
        -19.685039520263672,
        -196.85040283203125,
        66.92913055419922
      ],
      "type": "VEC3"
    },
    {
      "bufferView": 2,
      "byteOffset": 315240,
      "componentType": 5126,
      "count": 573,
      "max": [
        1.0,
        1.0,
        1.0
      ],
      "min": [
        -1.0,
        -1.0,
        -1.0
      ],
      "type": "VEC3"
    },
    {
      "bufferView": 0,
      "byteOffset": 163388,
      "componentType": 5125,
      "count": 1263,
      "type": "SCALAR"
    },
    {
      "bufferView": 2,
      "byteOffset": 322116,
      "componentType": 5126,
      "count": 12,
      "max": [
        787.401611328125,
        1397.637939453125,
        216.535400390625
      ],
      "min": [
        -9.842519760131836,
        -206.69290161132813,
        137.79530334472656
      ],
      "type": "VEC3"
    },
    {
      "bufferView": 0,
      "byteOffset": 168440,
      "componentType": 5125,
      "count": 12,
      "type": "SCALAR"
    },
    {
      "bufferView": 2,
      "byteOffset": 322260,
      "componentType": 5126,
      "count": 193,
      "max": [
        787.401611328125,
        1387.7950439453125,
        461.10308837890625
      ],
      "min": [
        -19.685039520263672,
        -196.85040283203125,
        264.6333923339844
      ],
      "type": "VEC3"
    },
    {
      "bufferView": 2,
      "byteOffset": 324576,
      "componentType": 5126,
      "count": 193,
      "max": [
        0.5,
        4.1382930191653756e-16,
        0.8660253882408142
      ],
      "min": [
        -0.5,
        -7.162153259957741e-17,
        0.8660253882408142
      ],
      "type": "VEC3"
    },
    {
      "bufferView": 0,
      "byteOffset": 168488,
      "componentType": 5125,
      "count": 417,
      "type": "SCALAR"
    }
  ],
  "asset": {
    "extras": {
      "author": "Aaron Openshaw (https://sketchfab.com/aaronopenshaw)",
      "license": "CC-BY-4.0 (http://creativecommons.org/licenses/by/4.0/)",
      "source": "https://sketchfab.com/3d-models/carpet-tile-vr-experience-7d00bcc9eae849c0b608ce603def7fde",
      "title": "Carpet Tile VR Experience"
    },
    "generator": "Sketchfab-12.66.0",
    "version": "2.0"
  },
  "bufferViews": [
    {
      "buffer": 0,
      "byteLength": 170156,
      "name": "floatBufferViews",
      "target": 34963
    },
    {
      "buffer": 0,
      "byteLength": 816,
      "byteOffset": 170156,
      "byteStride": 8,
      "name": "floatBufferViews",
      "target": 34962
    },
    {
      "buffer": 0,
      "byteLength": 326892,
      "byteOffset": 170972,
      "byteStride": 12,
      "name": "floatBufferViews",
      "target": 34962
    }
  ],
  "buffers": [
    {
      "byteLength": 497864,
      "uri": "scene.bin"
    }
  ],
  "images": [
    {
      "uri": "textures/Carpet_Tiles_baseColor.jpeg"
    }
  ],
  "materials": [
    {
      "name": "material_0",
      "pbrMetallicRoughness": {
        "baseColorFactor": [
          0.5,
          0.5,
          0.5,
          1.0
        ],
        "metallicFactor": 0.0,
        "roughnessFactor": 0.6
      }
    },
    {
      "name": "edge_color000255",
      "pbrMetallicRoughness": {
        "metallicFactor": 0.0,
        "roughnessFactor": 0.6
      }
    },
    {
      "alphaMode": "BLEND",
      "emissiveFactor": [
        1.0,
        0.11011230759322643,
        0.0
      ],
      "name": "Purple_Lamps",
      "pbrMetallicRoughness": {
        "baseColorFactor": [
          1.0,
          0.06935713440179825,
          0.0,
          0.86
        ],
        "metallicFactor": 0.0,
        "roughnessFactor": 0.6
      }
    },
    {
      "name": "Wall_Horizon",
      "pbrMetallicRoughness": {
        "baseColorFactor": [
          0.35294100642204285,
          0.35294100642204285,
          0.35294100642204285,
          1.0
        ],
        "metallicFactor": 0.0,
        "roughnessFactor": 0.6
      }
    },
    {
      "name": "Carpet_Tiles",
      "pbrMetallicRoughness": {
        "baseColorTexture": {
          "index": 0
        },
        "metallicFactor": 0.0,
        "roughnessFactor": 0.6
      }
    },
    {
      "name": "Walls",
      "pbrMetallicRoughness": {
        "baseColorFactor": [
          0.749019980430603,
          0.749019980430603,
          0.749019980430603,
          1.0
        ],
        "metallicFactor": 0.0,
        "roughnessFactor": 0.6
      }
    },
    {
      "name": "material",
      "pbrMetallicRoughness": {
        "metallicFactor": 0.0,
        "roughnessFactor": 0.6
      }
    },
    {
      "name": "edge_color145145145255",
      "pbrMetallicRoughness": {
        "metallicFactor": 0.0,
        "roughnessFactor": 0.6
      }
    },
    {
      "name": "Structure",
      "pbrMetallicRoughness": {
        "baseColorFactor": [
          0.5686269998550415,
          0.5686269998550415,
          0.5686269998550415,
          1.0
        ],
        "metallicFactor": 0.0,
        "roughnessFactor": 0.6
      }
    },
    {
      "name": "edge_color255255255255",
      "pbrMetallicRoughness": {
        "metallicFactor": 0.0,
        "roughnessFactor": 0.6
      }
    },
    {
      "name": "edge_color909090255",
      "pbrMetallicRoughness": {
        "metallicFactor": 0.0,
        "roughnessFactor": 0.6
      }
    },
    {
      "name": "edge_color20643255255",
      "pbrMetallicRoughness": {
        "metallicFactor": 0.0,
        "roughnessFactor": 0.6
      }
    },
    {
      "name": "Long_Walls",
      "pbrMetallicRoughness": {
        "metallicFactor": 0.0,
        "roughnessFactor": 0.6
      }
    },
    {
      "name": "edge_color191191191255",
      "pbrMetallicRoughness": {
        "metallicFactor": 0.0,
        "roughnessFactor": 0.6
      }
    },
    {
      "name": "material_14",
      "pbrMetallicRoughness": {
        "baseColorFactor": [
          1.0,
          0.0,
          0.0,
          1.0
        ],
        "metallicFactor": 0.0,
        "roughnessFactor": 0.6
      }
    }
  ],
  "meshes": [
    {
      "name": "Material2",
      "primitives": [
        {
          "attributes": {
            "NORMAL": 1,
            "POSITION": 0,
            "TEXCOORD_0": 2
          },
          "indices": 3,
          "material": 4,
          "mode": 4
        }
      ]
    },
    {
      "name": "Material6",
      "primitives": [
        {
          "attributes": {
            "POSITION": 4
          },
          "indices": 5,
          "material": 10,
          "mode": 1
        }
      ]
    },
    {
      "name": "Material3",
      "primitives": [
        {
          "attributes": {
            "POSITION": 6
          },
          "indices": 7,
          "material": 1,
          "mode": 1
        }
      ]
    },
    {
      "name": "Material2",
      "primitives": [
        {
          "attributes": {
            "NORMAL": 9,
            "POSITION": 8
          },
          "indices": 10,
          "material": 2,
          "mode": 4
        }
      ]
    },
    {
      "name": "Material2",
      "primitives": [
        {
          "attributes": {
            "NORMAL": 12,
            "POSITION": 11
          },
          "indices": 13,
          "material": 3,
          "mode": 4
        }
      ]
    },
    {
      "name": "Material2",
      "primitives": [
        {
          "attributes": {
            "NORMAL": 15,
            "POSITION": 14
          },
          "indices": 16,
          "material": 5,
          "mode": 4
        }
      ]
    },
    {
      "name": "Material2",
      "primitives": [
        {
          "attributes": {
            "NORMAL": 18,
            "POSITION": 17
          },
          "indices": 19,
          "material": 6,
          "mode": 4
        }
      ]
    },
    {
      "name": "Material4",
      "primitives": [
        {
          "attributes": {
            "POSITION": 20
          },
          "indices": 21,
          "material": 7,
          "mode": 1
        }
      ]
    },
    {
      "name": "Material2",
      "primitives": [
        {
          "attributes": {
            "NORMAL": 23,
            "POSITION": 22
          },
          "indices": 24,
          "material": 8,
          "mode": 4
        }
      ]
    },
    {
      "name": "Material4",
      "primitives": [
        {
          "attributes": {
            "POSITION": 25
          },
          "indices": 26,
          "material": 9,
          "mode": 1
        }
      ]
    },
    {
      "name": "Material6",
      "primitives": [
        {
          "attributes": {
            "POSITION": 27
          },
          "indices": 28,
          "material": 11,
          "mode": 1
        }
      ]
    },
    {
      "name": "Material2",
      "primitives": [
        {
          "attributes": {
            "NORMAL": 30,
            "POSITION": 29
          },
          "indices": 31,
          "material": 12,
          "mode": 4
        }
      ]
    },
    {
      "name": "Material4",
      "primitives": [
        {
          "attributes": {
            "POSITION": 32
          },
          "indices": 33,
          "material": 13,
          "mode": 1
        }
      ]
    },
    {
      "name": "Material2",
      "primitives": [
        {
          "attributes": {
            "NORMAL": 35,
            "POSITION": 34
          },
          "indices": 36,
          "material": 14,
          "mode": 4
        }
      ]
    }
  ],
  "nodes": [
    {
      "children": [
        1
      ],
      "matrix": [
        0.02380952425301075,
        0.0,
        0.0,
        0.0,
        0.0,
        5.286776406212723e-18,
        -0.02380952425301075,
        0.0,
        0.0,
        0.02380952425301075,
        5.286776406212723e-18,
        0.0,
        0.0,
        0.0,
        0.0,
        1.0
      ],
      "name": "Sketchfab_model"
    },
    {
      "children": [
        2
      ],
      "name": "Collada visual scene group"
    },
    {
      "children": [
        3,
        4,
        5,
        6,
        7,
        8,
        9,
        10,
        11,
        12,
        13,
        14,
        15,
        16
      ],
      "name": "SketchUp"
    },
    {
      "mesh": 0,
      "name": "Material2"
    },
    {
      "mesh": 1,
      "name": "Material6"
    },
    {
      "mesh": 2,
      "name": "Material3"
    },
    {
      "mesh": 3,
      "name": "Material2"
    },
    {
      "mesh": 4,
      "name": "Material2"
    },
    {
      "mesh": 5,
      "name": "Material2"
    },
    {
      "mesh": 6,
      "name": "Material2"
    },
    {
      "mesh": 7,
      "name": "Material4"
    },
    {
      "mesh": 8,
      "name": "Material2"
    },
    {
      "mesh": 9,
      "name": "Material4"
    },
    {
      "mesh": 10,
      "name": "Material6"
    },
    {
      "mesh": 11,
      "name": "Material2"
    },
    {
      "mesh": 12,
      "name": "Material4"
    },
    {
      "mesh": 13,
      "name": "Material2"
    }
  ],
  "samplers": [
    {
      "magFilter": 9729,
      "minFilter": 9987,
      "wrapS": 10497,
      "wrapT": 10497
    }
  ],
  "scene": 0,
  "scenes": [
    {
      "name": "Sketchfab_Scene",
      "nodes": [
        0
      ]
    }
  ],
  "textures": [
    {
      "sampler": 0,
      "source": 0
    }
  ]
}
